<svg xmlns="http://www.w3.org/2000/svg">
    <!-- Aquí estarán nuestros íconos -->
    <symbol id="github" viewBox="0 0 20 20">
        <title>GitHub</title>
        <!-- Código SVG que almacenará el symbol -->
        <g id="Page-1" stroke="none" stroke-width="1" fill="none" fill-rule="evenodd"><g id="Dribbble-Light-Preview" transform="translate(-140.000000, -7559.000000)" fill="#000"><g id="icons" transform="translate(56.000000, 160.000000)"><path d="M94 7399c5.523 0 10 4.59 10 10.253 0 4.529-2.862 8.371-6.833 9.728-.507.101-.687-.219-.687-.492 0-.338.012-1.442.012-2.814 0-.956-.32-1.58-.679-1.898 2.227-.254 4.567-1.121 4.567-5.059 0-1.12-.388-2.034-1.03-2.752.104-.259.447-1.302-.098-2.714 0 0-.838-.275-2.747 1.051a9.396 9.396 0 0 0-2.505-.345 9.375 9.375 0 0 0-2.503.345c-1.911-1.326-2.751-1.051-2.751-1.051-.543 1.412-.2 2.455-.097 2.714-.639.718-1.03 1.632-1.03 2.752 0 3.928 2.335 4.808 4.556 5.067-.286.256-.545.708-.635 1.371-.57.262-2.018.715-2.91-.852 0 0-.529-.985-1.533-1.057 0 0-.975-.013-.068.623 0 0 .655.315 1.11 1.5 0 0 .587 1.83 3.369 1.21.005.857.014 1.665.014 1.909 0 .271-.184.588-.683.493-3.974-1.355-6.839-5.199-6.839-9.729 0-5.663 4.478-10.253 10-10.253"/></g></g></g>
    </symbol>
    <symbol id="instagram" viewBox="0 0 19.19995 19.19995">
        <title>Instagram</title>
        <!-- Código SVG que almacenará el symbol -->
        <path d="M13.898 7.051a1.656 1.656 0 0 0-.95-.949 2.766 2.766 0 0 0-.928-.172c-.527-.024-.685-.03-2.02-.03s-1.493.006-2.02.03a2.766 2.766 0 0 0-.929.172 1.656 1.656 0 0 0-.949.95 2.766 2.766 0 0 0-.172.928c-.024.527-.03.685-.03 2.02s.006 1.493.03 2.02a2.766 2.766 0 0 0 .172.929 1.656 1.656 0 0 0 .95.949 2.766 2.766 0 0 0 .928.172c.527.024.685.03 2.02.03s1.493-.006 2.02-.03a2.766 2.766 0 0 0 .929-.172 1.656 1.656 0 0 0 .949-.95 2.766 2.766 0 0 0 .172-.928c.024-.527.03-.685.03-2.02s-.006-1.493-.03-2.02a2.766 2.766 0 0 0-.172-.929zM10 12.568A2.568 2.568 0 1 1 12.568 10 2.568 2.568 0 0 1 10 12.568zm2.669-4.637a.6.6 0 1 1 .6-.6.6.6 0 0 1-.6.6z" transform="translate(-0.40002 -0.40002)"/><circle cx="9.59998" cy="9.59998" r="1.66669"/><path d="M10 .4a9.6 9.6 0 1 0 9.6 9.6A9.6 9.6 0 0 0 10 .4zm4.97 11.662a3.67 3.67 0 0 1-.233 1.213 2.556 2.556 0 0 1-1.462 1.462 3.67 3.67 0 0 1-1.213.233c-.534.024-.704.03-2.062.03s-1.528-.006-2.062-.03a3.67 3.67 0 0 1-1.213-.233 2.556 2.556 0 0 1-1.462-1.462 3.67 3.67 0 0 1-.233-1.213C5.006 11.528 5 11.358 5 10s.006-1.528.03-2.062a3.67 3.67 0 0 1 .233-1.213 2.556 2.556 0 0 1 1.462-1.462 3.67 3.67 0 0 1 1.213-.233C8.472 5.006 8.642 5 10 5s1.528.006 2.062.03a3.67 3.67 0 0 1 1.213.233 2.556 2.556 0 0 1 1.462 1.462 3.67 3.67 0 0 1 .233 1.213c.024.534.03.704.03 2.062s-.006 1.528-.03 2.062z" transform="translate(-0.40002 -0.40002)"/>
    </symbol>
    <symbol id="twitter" viewBox="0 0 32 32">
        <title>Twitter</title>
        <path d="M16 0C7.164 0 0 7.164 0 16s7.164 16 16 16 16-7.164 16-16c0-8.838-7.164-16-16-16zm7.96 12.408c.008.17.012.34.012.51 0 5.206-3.962 11.208-11.208 11.208-2.224 0-4.294-.652-6.038-1.77a7.905 7.905 0 0 0 5.832-1.63 3.946 3.946 0 0 1-3.68-2.736 3.939 3.939 0 0 0 1.78-.068 3.942 3.942 0 0 1-3.16-3.862v-.05a3.933 3.933 0 0 0 1.784.494 3.938 3.938 0 0 1-1.752-3.278c0-.722.194-1.398.532-1.98a11.18 11.18 0 0 0 8.12 4.116 3.94 3.94 0 0 1 6.714-3.592 7.94 7.94 0 0 0 2.502-.956 3.95 3.95 0 0 1-1.732 2.18 7.878 7.878 0 0 0 2.262-.62 7.962 7.962 0 0 1-1.968 2.034z"/>
    </symbol>
</svg>